<?xml version="1.0" encoding="utf-8"?>
<!-- Generated by IcoMoon.io -->
<!DOCTYPE svg PUBLIC "-//W3C//DTD SVG 1.1//EN" "http://www.w3.org/Graphics/SVG/1.1/DTD/svg11.dtd">
<svg version="1.1" xmlns="http://www.w3.org/2000/svg" xmlns:xlink="http://www.w3.org/1999/xlink" width="512" height="512" viewBox="0 0 512 512">
<g>
</g>
	<path d="M256 0c141.385 0 256 114.615 256 256s-114.615 256-256 256-256-114.615-256-256 114.615-256 256-256zM256 464c114.875 0 208-93.125 208-208s-93.125-208-208-208-208 93.125-208 208 93.125 208 208 208zM105.372 233.373l128.001-128c12.496-12.497 32.757-12.497 45.254 0s12.497 32.758 0 45.255l-73.372 73.372h178.745c17.673 0 32 14.327 32 32s-14.327 32-32 32h-178.745l73.373 73.372c12.497 12.497 12.497 32.759 0 45.256-6.249 6.248-14.439 9.372-22.628 9.372s-16.379-3.124-22.627-9.372l-128.001-128c-12.496-12.497-12.496-32.759 0-45.255z" fill="#000000" />
</svg>
