<?xml version="1.0" encoding="utf-8"?>
<!-- Generated by IcoMoon.io -->
<!DOCTYPE svg PUBLIC "-//W3C//DTD SVG 1.1//EN" "http://www.w3.org/Graphics/SVG/1.1/DTD/svg11.dtd">
<svg version="1.1" xmlns="http://www.w3.org/2000/svg" xmlns:xlink="http://www.w3.org/1999/xlink" width="512" height="512" viewBox="0 0 512 512">
<g>
</g>
	<path d="M512 256c0 141.385-114.615 256-256 256s-256-114.615-256-256 114.615-256 256-256 256 114.615 256 256zM48 256c0 114.875 93.125 208 208 208s208-93.125 208-208-93.125-208-208-208-208 93.125-208 208zM278.627 105.372l128 128.001c12.497 12.496 12.497 32.757 0 45.254s-32.758 12.497-45.255 0l-73.372-73.372v178.745c0 17.673-14.327 32-32 32s-32-14.327-32-32v-178.745l-73.372 73.373c-12.497 12.497-32.759 12.497-45.256 0-6.248-6.249-9.372-14.439-9.372-22.628s3.124-16.379 9.372-22.627l128-128.001c12.497-12.496 32.759-12.496 45.255 0z" fill="#000000" />
</svg>
